<svg width="260" height="72" viewBox="0 0 260 72" fill="none" xmlns="http://www.w3.org/2000/svg">
  <defs>
    <linearGradient id="g1" x1="10" y1="8" x2="72" y2="66" gradientUnits="userSpaceOnUse">
      <stop stop-color="#67E8F9"/>
      <stop offset="0.45" stop-color="#2563EB"/>
      <stop offset="1" stop-color="#0EA5E9"/>
    </linearGradient>
    <linearGradient id="g2" x1="92" y1="13" x2="206" y2="45" gradientUnits="userSpaceOnUse">
      <stop stop-color="#FFFFFF"/>
      <stop offset="0.65" stop-color="#E2E8F0"/>
      <stop offset="1" stop-color="#38BDF8"/>
    </linearGradient>
  </defs>

  <rect x="8" y="8" width="56" height="56" rx="16" fill="#07111F" stroke="url(#g1)" stroke-width="3"/>
  <path d="M22 26C22 22.6863 24.6863 20 28 20H51V29H31C30.4477 29 30 29.4477 30 30V42H22V26Z" fill="url(#g1)"/>
  <path d="M50 30C50 26.6863 47.3137 24 44 24H21V33H41C41.5523 33 42 33.4477 42 34V46H50V30Z" fill="#BFDBFE"/>
  <path d="M25 42H39C39.5523 42 40 41.5523 40 41V37H48V46C48 49.3137 45.3137 52 42 52H25V42Z" fill="#38BDF8"/>
  <path d="M20 35H34C34.5523 35 35 34.5523 35 34V31H43V38C43 41.3137 40.3137 44 37 44H20V35Z" fill="#2563EB"/>

  <text x="78" y="35" font-family="Inter, Arial, sans-serif" font-size="28" font-weight="800" fill="url(#g2)">Juridic</text>
  <text x="169" y="35" font-family="Inter, Arial, sans-serif" font-size="28" font-weight="900" fill="#0EA5E9">Vas</text>
  <text x="80" y="52" font-family="Inter, Arial, sans-serif" font-size="8.5" font-weight="700" letter-spacing="1.8" fill="#CBD5E1">SISTEMA DE GESTÃO JURÍDICA</text>
</svg>
